<svg xmlns="http://www.w3.org/2000/svg" xmlns:xlink="http://www.w3.org/1999/xlink" version="1.1" x="0px" y="0px"
     viewBox="0 0 100 100" style="enable-background:new 0 0 100 100;" xml:space="preserve"><path fill='black' d="M43.3500977,40.3613281c0.1923828,0.1928711,0.4487305,0.2929688,0.7075195,0.2929688  c0.1704102,0,0.3422852-0.043457,0.4980469-0.1333008c3.3061523-1.8999023,7.4282227-1.9306641,10.7587891-0.0771484  c0.3901367,0.2167969,0.8774414,0.1494141,1.1933594-0.1665039l14.1513672-14.1518555  c0.2001953-0.2001953,0.3061523-0.4755859,0.2915039-0.7583008c-0.0141602-0.2827148-0.1479492-0.5458984-0.3671875-0.7246094  c-11.9882812-9.7543945-29.3544922-9.7094727-41.2939453,0.1064453c-0.2177734,0.1791992-0.3496094,0.4418945-0.3637695,0.7236328  c-0.0136719,0.2817383,0.0922852,0.5566406,0.2919922,0.7558594L43.3500977,40.3613281z M68.4472656,25.5092773  L55.6108398,38.3461914c-3.5810547-1.7211914-7.8125-1.6928711-11.3710938,0.0766602L31.4257812,25.6079102  C42.300293,17.3081055,57.5307617,17.2670898,68.4472656,25.5092773z"/>
    <path fill='black'
          d="M25.3671875,70.9506836c0.0170898,0.0009766,0.0341797,0.0014648,0.0512695,0.0014648  c0.2646484,0,0.519043-0.1049805,0.7070312-0.2929688l14.1518555-14.1513672  c0.315918-0.315918,0.3837891-0.8032227,0.1665039-1.1933594c-1.8149414-3.2612305-1.8251953-7.3173828-0.0253906-10.5854492  c0.2148438-0.3901367,0.1459961-0.875-0.1689453-1.1894531L26.0927734,29.3828125  c-0.2001953-0.2001953-0.4770508-0.3100586-0.7587891-0.2915039c-0.2832031,0.0146484-0.5463867,0.1484375-0.7250977,0.3686523  c-9.6679688,11.9228516-9.6538086,29.2177734,0.0336914,41.1235352  C24.8212891,70.8027344,25.0844727,70.9365234,25.3671875,70.9506836z M25.4780273,31.5961914l12.8427734,12.8427734  c-1.6665039,3.5107422-1.6567383,7.6669922,0.0253906,11.1713867L25.5092773,68.4472656  C17.3286133,57.6069336,17.315918,42.4511719,25.4780273,31.5961914z"/>
    <path fill='black'
          d="M59.5043945,44.5986328c1.9052734,3.3486328,1.8955078,7.5048828-0.0253906,10.8457031  c-0.2255859,0.3920898-0.1601562,0.8862305,0.159668,1.2055664l14.1328125,14.1323242  c0.1879883,0.1879883,0.4423828,0.2929688,0.7070312,0.2929688c0.0161133,0,0.0322266-0.0004883,0.0488281-0.0009766  c0.2817383-0.0141602,0.5444336-0.1459961,0.7236328-0.3637695c9.8496094-11.980957,9.8642578-29.3833008,0.0351562-41.3793945  c-0.1787109-0.2182617-0.4418945-0.3510742-0.7241211-0.3647461c-0.2768555-0.0146484-0.5566406,0.0917969-0.7563477,0.2915039  L59.6665039,43.3969727C59.3481445,43.715332,59.2817383,44.2070312,59.5043945,44.5986328z M61.6025391,44.2890625  l12.8222656-12.8222656c8.3125,10.9272461,8.2978516,26.1938477-0.0327148,37.1074219L61.5771484,55.7602539  C63.3652344,52.1635742,63.375,47.8930664,61.6025391,44.2890625z"/>
    <path fill='black'
          d="M56.4604492,59.7504883c-0.3149414-0.3149414-0.7993164-0.3842773-1.1894531-0.1689453  c-3.3022461,1.8178711-7.3920898,1.7890625-10.6723633-0.0771484c-0.3925781-0.2226562-0.8837891-0.1567383-1.2016602,0.1621094  L29.2578125,73.8056641c-0.199707,0.199707-0.3056641,0.4746094-0.2915039,0.7563477  c0.0136719,0.2822266,0.1464844,0.5454102,0.3647461,0.7241211c5.9804688,4.8999023,13.3237305,7.3515625,20.6699219,7.3510742  c7.2890625-0.0004883,14.5805664-2.4145508,20.5390625-7.2460938c0.2202148-0.1787109,0.3540039-0.4418945,0.3686523-0.7246094  c0.0146484-0.2832031-0.0913086-0.559082-0.2915039-0.7592773L56.4604492,59.7504883z M31.4667969,74.4248047l12.8222656-12.8222656  c3.5288086,1.7329102,7.7231445,1.7617188,11.2719727,0.0766602l12.8427734,12.8427734  C57.5107422,82.7163086,42.3178711,82.675293,31.4667969,74.4248047z"/>
    <path fill='black'
          d="M50,89.9814453c10.2431641,0,20.4863281-3.8994141,28.2841797-11.6972656  c15.5961914-15.5957031,15.5961914-40.9726562,0-56.5683594c-15.5957031-15.5957031-40.9726562-15.5957031-56.5683594,0  c-15.5961914,15.5957031-15.5961914,40.9726562,0,56.5683594C29.5136719,86.0820312,39.7568359,89.9814453,50,89.9814453z   M23.1298828,23.1298828C30.5380859,15.7216797,40.269043,12.0175781,50,12.0175781s19.4619141,3.7041016,26.8701172,11.1123047  c14.815918,14.8164062,14.815918,38.9238281,0,53.7402344c-14.8164062,14.8164062-38.9238281,14.8164062-53.7402344,0  C8.3139648,62.0537109,8.3139648,37.9462891,23.1298828,23.1298828z"/></svg>